<svg xmlns="http://www.w3.org/2000/svg" width="754.53" height="314.15">
  <title>SØB.ORG Logo</title>

  <!-- background and border -->
  <rect fill="#000" width="754.53" height="314.15" rx="90"/>
  <rect fill="#fff" width="734.53" height="294.15" rx="90" x="10" y="10"/>

  <!-- text -->
  <text font-size="128px" x="50%" y="40%" text-anchor="middle">SØB.ORG</text>

  <!-- houses -->
  <path d="M178.18,284.38c0-.82-.11-1.53-.11-2.24V252.41a4.09,4.09,0,0,1,1.25-3.18l35.4-35.93a11,11,0,0,1,1-.86,17.42,17.42,0,0,1,1.4,1.25c11.52,11.69,22.71,23.57,33.92,34.4,2.53,2.45,2.08,1.57,2.13,4.24v6.84H268c.06-.8.15-1.64.15-2.48V232a14.54,14.54,0,0,1,.47-3.77q10.59-39,21.24-78c.1-.38.26-.75.52-1.48.31.82.54,1.31.68,1.83q10.35,38.85,20.66,77.7a13.55,13.55,0,0,1,.48,3.29V282.4c0,.62-.07,1.25-.11,1.85-1.77.5-130.25.67-133.87.16Z"/>
  <path d="M488.1,261.17a4.82,4.82,0,0,0-1.56-3.76c-8.23-8.27-16.39-16.6-24.58-24.91-.49-.49-1-.95-1.57-1.47a9.65,9.65,0,0,0-.81.62q-12.94,13.14-25.9,26.27a3.23,3.23,0,0,0-.94,2.57c0,3,.05,7.48,0,10.51l-15.5.14V232.83a5,5,0,0,0-1.59-4c-4-3.86-7.89-7.8-11.76-11.78a4.21,4.21,0,0,0-3.32-1.38H343.64a4.14,4.14,0,0,0-3.3,1.39q-5.86,6.09-11.86,12a4.54,4.54,0,0,0-1.46,3.57c.05,16.47,0,32.94,0,49.4,0,.78.08,1.55.12,2.48H488.06V282C488.06,275.08,488,268.13,488.1,261.17Z"/>
  <path d="M576.34,284.61H503.75c-.05-.88-.13-1.65-.13-2.42v-65a4,4,0,0,1,1.07-3.24q17.34-17.47,34.59-35.06c.21-.19.43-.38.66-.55a13.09,13.09,0,0,1,1.23,1q17,17.28,34.08,34.56a3.79,3.79,0,0,1,1.23,2.93v65.93c0,.54-.06,1.09-.11,1.85Z"/>
</svg>
