<svg xmlns="http://www.w3.org/2000/svg" width="754.53" height="314.15">
  <title>SØB.ORG Logo</title>

  <!-- background -->
  <rect fill="#fff" width="754.53" height="314.15" rx="78"/>

  <text style="fill: #999; stroke: #000; font-size: 128px;" x="100" y="128">SØB.ORG</text>

  <!-- black border -->
  <path d="M377,.25H50.6A48.61,48.61,0,0,0,17.44,12.58C5.39,23.17-.17,36.8-.17,52.86V261.52A64.29,64.29,0,0,0,1,273.18a50.29,50.29,0,0,0,49.67,41H704a52.09,52.09,0,0,0,6.37-.35c25.24-3.17,44.17-24.92,44.17-50.78V51.28c0-15.77-6.12-28.9-18-39.11C727.08,4,716,.17,703.5.17Q579.12.25,454.75.25,415.9.27,377,.25Zm0,300.89H338.82q-143.37,0-286.74.11c-6.15,0-12.13-.75-17.66-3.56-13.72-7-21.05-18.25-21.77-33.87v-212a37.66,37.66,0,0,1,10-26.41A36,36,0,0,1,50.1,13.14H456.84q123.53,0,247.06.08a37.49,37.49,0,0,1,36.68,29.15,43.08,43.08,0,0,1,1.1,9.73q.09,105,0,210.09c0,18-10.93,32.8-27.46,37.56a42.23,42.23,0,0,1-11.68,1.4H377Z"/>

  <!-- houses -->
  <path d="M178.18,284.38c0-.82-.11-1.53-.11-2.24V252.41a4.09,4.09,0,0,1,1.25-3.18l35.4-35.93a11,11,0,0,1,1-.86,17.42,17.42,0,0,1,1.4,1.25c11.52,11.69,22.71,23.57,33.92,34.4,2.53,2.45,2.08,1.57,2.13,4.24v6.84H268c.06-.8.15-1.64.15-2.48V232a14.54,14.54,0,0,1,.47-3.77q10.59-39,21.24-78c.1-.38.26-.75.52-1.48.31.82.54,1.31.68,1.83q10.35,38.85,20.66,77.7a13.55,13.55,0,0,1,.48,3.29V282.4c0,.62-.07,1.25-.11,1.85-1.77.5-130.25.67-133.87.16Z"/>
  <path d="M488.1,261.17a4.82,4.82,0,0,0-1.56-3.76c-8.23-8.27-16.39-16.6-24.58-24.91-.49-.49-1-.95-1.57-1.47a9.65,9.65,0,0,0-.81.62q-12.94,13.14-25.9,26.27a3.23,3.23,0,0,0-.94,2.57c0,3,.05,7.48,0,10.51l-15.5.14V232.83a5,5,0,0,0-1.59-4c-4-3.86-7.89-7.8-11.76-11.78a4.21,4.21,0,0,0-3.32-1.38H343.64a4.14,4.14,0,0,0-3.3,1.39q-5.86,6.09-11.86,12a4.54,4.54,0,0,0-1.46,3.57c.05,16.47,0,32.94,0,49.4,0,.78.08,1.55.12,2.48H488.06V282C488.06,275.08,488,268.13,488.1,261.17Z"/>
  <path d="M576.34,284.61H503.75c-.05-.88-.13-1.65-.13-2.42v-65a4,4,0,0,1,1.07-3.24q17.34-17.47,34.59-35.06c.21-.19.43-.38.66-.55a13.09,13.09,0,0,1,1.23,1q17,17.28,34.08,34.56a3.79,3.79,0,0,1,1.23,2.93v65.93c0,.54-.06,1.09-.11,1.85Z"/>
</svg>
